<svg xmlns="http://www.w3.org/2000/svg" width="19.267" height="15.906" viewBox="0 0 19.267 15.906">
  <path id="_004-twitter" data-name="004-twitter" d="M7.331,15.907c-3.216,0-5.757-.562-6.973-1.541l-.024-.019-.021-.021a.989.989,0,0,1-.259-1.04l.011-.031a1.007,1.007,0,0,1,.919-.632,8.3,8.3,0,0,0,2.2-.3,4.167,4.167,0,0,1-2.2-2.538A.9.9,0,0,1,1.3,8.733a.918.918,0,0,1,.274-.14A6.077,6.077,0,0,1,.324,6.36L.317,6.335.312,6.309A.937.937,0,0,1,.746,5.3a.933.933,0,0,1,.444-.125A4.7,4.7,0,0,1,.835,4.1a4.53,4.53,0,0,1,.482-3.019l.12-.239A.666.666,0,0,1,2.5.665l.218.218A10.273,10.273,0,0,0,8.645,4.127,4.719,4.719,0,0,1,9.919,1.406,4.47,4.47,0,0,1,13.11,0h.008a6.393,6.393,0,0,1,2.638.859c.568-.186,1.252-.473,1.961-.778a.9.9,0,0,1,1,.177.88.88,0,0,1,.191.968q-.077.215-.175.422a.9.9,0,0,1,.261.18.969.969,0,0,1,.241.906l-.009.031A3.7,3.7,0,0,1,17.744,4.8c-.115,6.145-4.743,11.1-10.414,11.1Zm-5.89-2.17a13.309,13.309,0,0,0,5.89,1.04A8.822,8.822,0,0,0,13.871,11.8a10.661,10.661,0,0,0,2.746-7.234V4.536a.666.666,0,0,1,.355-.589A2.4,2.4,0,0,0,18.01,2.8a.666.666,0,0,1-.642-1.049,3.668,3.668,0,0,0,.252-.4c-.613.257-1.195.488-1.7.641a.723.723,0,0,1-.556-.06,5.5,5.5,0,0,0-2.242-.8A3.513,3.513,0,0,0,9.743,4.69a.667.667,0,0,1-.8.654A11.681,11.681,0,0,1,2.164,1.93a3.336,3.336,0,0,0-.22,1.951,4.123,4.123,0,0,0,.978,1.9A.666.666,0,0,1,2.25,6.861a3.052,3.052,0,0,1-.621-.239,5.629,5.629,0,0,0,1.93,2.238.666.666,0,0,1-.426,1.214,3,3,0,0,1-.884-.191A3.039,3.039,0,0,0,4.673,11.6a.666.666,0,0,1,.2,1.246,8.006,8.006,0,0,1-3.43.889Zm0,0" transform="translate(0)" fill="#fff"/>
</svg>
