<svg xmlns="http://www.w3.org/2000/svg" width="10.936" height="19.267" viewBox="0 0 10.936 19.267">
  <path id="_013-facebook" data-name="013-facebook" d="M7.255,19.267H4.169a.936.936,0,0,1-.935-.935V11.373h-1.8A.936.936,0,0,1,.5,10.438V7.456a.936.936,0,0,1,.935-.935h1.8V5.028A5.085,5.085,0,0,1,4.579,1.385,4.843,4.843,0,0,1,8.15,0L10.5,0a.936.936,0,0,1,.933.935V3.707a.935.935,0,0,1-.934.935H8.917c-.483,0-.606.1-.633.127-.043.049-.095.188-.095.573v1.18h2.193a.95.95,0,0,1,.462.117.938.938,0,0,1,.481.817v2.982a.936.936,0,0,1-.935.934H8.19v6.96a.936.936,0,0,1-.935.935Zm-2.891-1.13h2.7v-7.27a.625.625,0,0,1,.624-.624H10.2V7.651H7.684a.625.625,0,0,1-.624-.624V5.341a1.924,1.924,0,0,1,.378-1.32,1.914,1.914,0,0,1,1.479-.509h1.389V1.133l-2.157,0a3.566,3.566,0,0,0-3.784,3.9v2a.625.625,0,0,1-.624.624H1.63v2.592H3.741a.625.625,0,0,1,.624.624Zm6.136-17h0Zm0,0" transform="translate(-0.5)" fill="#fff"/>
</svg>
