<svg id="_014-instagram" data-name="014-instagram" xmlns="http://www.w3.org/2000/svg" width="19.267" height="19.268" viewBox="0 0 19.267 19.268">
  <path id="Caminho_843" data-name="Caminho 843" d="M14.051,0H5.214A5.221,5.221,0,0,0,0,5.215v8.836a5.221,5.221,0,0,0,5.215,5.215h8.836a5.221,5.221,0,0,0,5.215-5.215V5.215A5.221,5.221,0,0,0,14.051,0Zm4.086,14.052a4.09,4.09,0,0,1-4.086,4.086H5.214a4.09,4.09,0,0,1-4.086-4.086V5.215A4.091,4.091,0,0,1,5.214,1.13h8.836a4.09,4.09,0,0,1,4.086,4.086Zm0,0" transform="translate(0.001 0)" fill="#fff"/>
  <path id="Caminho_844" data-name="Caminho 844" d="M121.272,116a5.268,5.268,0,1,0,5.268,5.268A5.274,5.274,0,0,0,121.272,116Zm0,9.407a4.139,4.139,0,1,1,4.139-4.139A4.143,4.143,0,0,1,121.272,125.411Zm0,0" transform="translate(-111.639 -111.639)" fill="#fff"/>
  <path id="Caminho_845" data-name="Caminho 845" d="M359.534,66.285a1.557,1.557,0,1,0,1.557,1.557A1.558,1.558,0,0,0,359.534,66.285Zm0,1.984a.427.427,0,1,1,.427-.427A.428.428,0,0,1,359.534,68.269Zm0,0" transform="translate(-344.506 -63.791)" fill="#fff"/>
</svg>
