<svg id="_015-linkedin" data-name="015-linkedin" xmlns="http://www.w3.org/2000/svg" width="17.164" height="19.268" viewBox="0 0 17.164 19.268">
  <path id="Caminho_846" data-name="Caminho 846" d="M4.408,151.625H1.16a.661.661,0,0,0-.66.66v12.241a.661.661,0,0,0,.66.66H4.408a.661.661,0,0,0,.66-.66V152.285A.661.661,0,0,0,4.408,151.625Zm-.47,12.431H1.63v-11.3H3.938Zm0,0" transform="translate(-0.481 -145.919)" fill="#fff"/>
  <path id="Caminho_847" data-name="Caminho 847" d="M2.3,0a2.3,2.3,0,1,0,2.3,2.3A2.306,2.306,0,0,0,2.3,0Zm0,3.476A1.173,1.173,0,1,1,3.476,2.3,1.174,1.174,0,0,1,2.3,3.476Zm0,0" fill="#fff"/>
  <path id="Caminho_848" data-name="Caminho 848" d="M167.019,153.064a4.214,4.214,0,0,0-2.778-.976,4.259,4.259,0,0,0-1.8.439v-.267a.631.631,0,0,0-.631-.631H158.5a.631.631,0,0,0-.631.631v12.3a.631.631,0,0,0,.631.631h3.372a.565.565,0,0,0,.565-.565v-7.334a1.17,1.17,0,0,1,1.119-1.178,1.155,1.155,0,0,1,1.189,1.153v7.37a.554.554,0,0,0,.553.553h3.241a.554.554,0,0,0,.553-.553v-7.146a5.753,5.753,0,0,0-2.073-4.427Zm.942,11h-2.087v-6.793a2.284,2.284,0,0,0-4.569,0v6.793H159v-11.3h2.307v.822h0a.565.565,0,0,0,.939.423,3.132,3.132,0,0,1,2.016-.786,3.081,3.081,0,0,1,2.033.714,4.625,4.625,0,0,1,1.666,3.559Zm0,0" transform="translate(-151.927 -145.923)" fill="#fff"/>
</svg>
