<svg id="_018-youtube" data-name="018-youtube" xmlns="http://www.w3.org/2000/svg" width="25.179" height="19.071" viewBox="0 0 25.179 19.071">
  <path id="Caminho_849" data-name="Caminho 849" d="M198.021,109.694l-5.563-3.044a1.022,1.022,0,0,0-1.512.9v6.035a1.02,1.02,0,0,0,1.506.9l5.563-2.991a1.022,1.022,0,0,0,.006-1.8Zm-5.6,3.129v-4.511l4.157,2.275Zm0,0" transform="translate(-181.556 -101.285)" fill="#fff"/>
  <path id="Caminho_850" data-name="Caminho 850" d="M24.993,4.5V4.49a5.758,5.758,0,0,0-1.11-2.922A4.1,4.1,0,0,0,21.168.295L21.043.28,21,.275C17.671.033,12.643,0,12.593,0h-.009c-.05,0-5.077.033-8.436.275L4.1.28,3.986.294a3.994,3.994,0,0,0-2.7,1.312,6.035,6.035,0,0,0-1.1,2.869l0,.026C.177,4.585,0,6.593,0,8.609v1.884c0,2.016.178,4.023.185,4.108v.013A5.7,5.7,0,0,0,1.291,17.5a4.181,4.181,0,0,0,2.8,1.254c.1.012.191.022.251.032l.058.008c1.922.183,7.948.273,8.2.277h.015c.05,0,5.077-.033,8.406-.275l.044,0,.141-.016a3.9,3.9,0,0,0,2.675-1.28,6.034,6.034,0,0,0,1.1-2.869l0-.026c.007-.085.185-2.092.185-4.107V8.609c0-2.016-.178-4.023-.185-4.107ZM23.7,10.493c0,1.865-.163,3.787-.178,3.963A4.685,4.685,0,0,1,22.8,16.5a2.427,2.427,0,0,1-1.741.808l-.157.018c-3.22.233-8.057.269-8.28.27-.25,0-6.188-.095-8.051-.268-.1-.016-.2-.027-.307-.04A2.759,2.759,0,0,1,2.377,16.5l-.014-.015a4.25,4.25,0,0,1-.71-2.024c-.012-.133-.179-2.077-.179-3.969V8.609c0-1.863.163-3.782.178-3.962A4.589,4.589,0,0,1,2.377,2.6,2.546,2.546,0,0,1,4.155,1.76l.12-.014c3.266-.234,8.139-.269,8.313-.27s5.045.036,8.283.27l.13.015a2.642,2.642,0,0,1,1.807.819l.006.006a4.319,4.319,0,0,1,.71,2.053c.011.126.179,2.074.179,3.97Zm0,0" transform="translate(0.001 0)" fill="#fff"/>
</svg>
