<svg xmlns="http://www.w3.org/2000/svg" width="89.452" height="67.166" viewBox="0 0 89.452 67.166">
  <g id="atividades-icon" transform="translate(0 -63.779)">
    <g id="Grupo_147" data-name="Grupo 147" transform="translate(70.196 85.311)">
      <g id="Grupo_146" data-name="Grupo 146">
        <circle id="Elipse_18" data-name="Elipse 18" cx="2.15" cy="2.15" r="2.15" fill="#fff"/>
      </g>
    </g>
    <g id="Grupo_149" data-name="Grupo 149" transform="translate(56.386 85.311)">
      <g id="Grupo_148" data-name="Grupo 148">
        <circle id="Elipse_19" data-name="Elipse 19" cx="2.15" cy="2.15" r="2.15" fill="#fff"/>
      </g>
    </g>
    <g id="Grupo_151" data-name="Grupo 151" transform="translate(42.576 85.311)">
      <g id="Grupo_150" data-name="Grupo 150">
        <circle id="Elipse_20" data-name="Elipse 20" cx="2.15" cy="2.15" r="2.15" fill="#fff"/>
      </g>
    </g>
    <g id="Grupo_153" data-name="Grupo 153" transform="translate(28.766 85.311)">
      <g id="Grupo_152" data-name="Grupo 152">
        <circle id="Elipse_21" data-name="Elipse 21" cx="2.15" cy="2.15" r="2.15" fill="#fff"/>
      </g>
    </g>
    <g id="Grupo_155" data-name="Grupo 155" transform="translate(14.956 85.311)">
      <g id="Grupo_154" data-name="Grupo 154">
        <circle id="Elipse_22" data-name="Elipse 22" cx="2.15" cy="2.15" r="2.15" fill="#fff"/>
      </g>
    </g>
    <g id="Grupo_157" data-name="Grupo 157" transform="translate(70.196 99.121)">
      <g id="Grupo_156" data-name="Grupo 156">
        <circle id="Elipse_23" data-name="Elipse 23" cx="2.15" cy="2.15" r="2.15" fill="#fff"/>
      </g>
    </g>
    <g id="Grupo_159" data-name="Grupo 159" transform="translate(56.386 99.121)">
      <g id="Grupo_158" data-name="Grupo 158">
        <circle id="Elipse_24" data-name="Elipse 24" cx="2.15" cy="2.15" r="2.15" fill="#fff"/>
      </g>
    </g>
    <g id="Grupo_161" data-name="Grupo 161" transform="translate(42.576 99.121)">
      <g id="Grupo_160" data-name="Grupo 160">
        <circle id="Elipse_25" data-name="Elipse 25" cx="2.15" cy="2.15" r="2.15" fill="#fff"/>
      </g>
    </g>
    <g id="Grupo_163" data-name="Grupo 163" transform="translate(14.956 99.121)">
      <g id="Grupo_162" data-name="Grupo 162">
        <circle id="Elipse_26" data-name="Elipse 26" cx="2.15" cy="2.15" r="2.15" fill="#fff"/>
      </g>
    </g>
    <g id="Grupo_165" data-name="Grupo 165" transform="translate(70.196 112.931)">
      <g id="Grupo_164" data-name="Grupo 164" transform="translate(0 0)">
        <circle id="Elipse_27" data-name="Elipse 27" cx="2.15" cy="2.15" r="2.15" fill="#fff"/>
      </g>
    </g>
    <g id="Grupo_167" data-name="Grupo 167" transform="translate(56.386 112.931)">
      <g id="Grupo_166" data-name="Grupo 166" transform="translate(0 0)">
        <circle id="Elipse_28" data-name="Elipse 28" cx="2.15" cy="2.15" r="2.15" fill="#fff"/>
      </g>
    </g>
    <g id="Grupo_169" data-name="Grupo 169" transform="translate(42.576 112.931)">
      <g id="Grupo_168" data-name="Grupo 168" transform="translate(0 0)">
        <circle id="Elipse_29" data-name="Elipse 29" cx="2.15" cy="2.15" r="2.15" fill="#fff"/>
      </g>
    </g>
    <g id="Grupo_171" data-name="Grupo 171" transform="translate(28.766 112.931)">
      <g id="Grupo_170" data-name="Grupo 170" transform="translate(0 0)">
        <circle id="Elipse_30" data-name="Elipse 30" cx="2.15" cy="2.15" r="2.15" fill="#fff"/>
      </g>
    </g>
    <g id="Grupo_173" data-name="Grupo 173" transform="translate(14.956 112.931)">
      <g id="Grupo_172" data-name="Grupo 172" transform="translate(0 0)">
        <circle id="Elipse_31" data-name="Elipse 31" cx="2.15" cy="2.15" r="2.15" fill="#fff"/>
      </g>
    </g>
    <g id="Grupo_175" data-name="Grupo 175" transform="translate(22.578 92.933)">
      <g id="Grupo_174" data-name="Grupo 174">
        <path id="Caminho_541" data-name="Caminho 541" d="M144.058,230.65H131.078a1.848,1.848,0,0,0-1.848,1.848v12.979a1.848,1.848,0,0,0,1.848,1.848h12.979a1.848,1.848,0,0,0,1.848-1.848V232.5A1.849,1.849,0,0,0,144.058,230.65Zm-1.848,12.979h-9.282v-9.282h9.282v9.282Z" transform="translate(-129.23 -230.65)" fill="#fff"/>
      </g>
    </g>
    <g id="Grupo_177" data-name="Grupo 177" transform="translate(0 63.779)">
      <g id="Grupo_176" data-name="Grupo 176">
        <path id="Caminho_542" data-name="Caminho 542" d="M83.291,68.205H69.714V65.833a2.054,2.054,0,0,0-4.108,0v2.372H54.425V65.833a2.054,2.054,0,0,0-4.108,0v2.372H39.135V65.833a2.054,2.054,0,1,0-4.108,0v2.372H23.846V65.833a2.054,2.054,0,1,0-4.108,0v2.372H6.161A6.168,6.168,0,0,0,0,74.367v50.417a6.169,6.169,0,0,0,6.162,6.162H83.291a6.169,6.169,0,0,0,6.162-6.162V74.367A6.169,6.169,0,0,0,83.291,68.205Zm0,58.632H6.162a2.056,2.056,0,0,1-2.054-2.054V74.367a2.056,2.056,0,0,1,2.054-2.054H19.738v2.372a2.054,2.054,0,1,0,4.108,0V72.313H35.028v2.372a2.054,2.054,0,1,0,4.108,0V72.313H50.317v2.372a2.054,2.054,0,1,0,4.108,0V72.313H65.606v2.372a2.054,2.054,0,0,0,4.108,0V72.313H83.291a2.056,2.056,0,0,1,2.054,2.054v50.417h0A2.057,2.057,0,0,1,83.291,126.838Z" transform="translate(0 -63.779)" fill="#fff"/>
      </g>
    </g>
  </g>
</svg>
