<svg xmlns="http://www.w3.org/2000/svg" width="85.933" height="85.934" viewBox="0 0 85.933 85.934">
  <g id="cursos-icon" transform="translate(0 0)">
    <g id="Grupo_143" data-name="Grupo 143" transform="translate(0 0)">
      <g id="Grupo_142" data-name="Grupo 142" transform="translate(0)">
        <path id="Caminho_528" data-name="Caminho 528" d="M52.447,7.149l32.942,4.3a1.588,1.588,0,0,0,.185.011,1.626,1.626,0,0,0,.185-.011L117.083,7.36v4.973c-.9,1.01-2.865,3.529-2.865,6.286a4.3,4.3,0,1,0,8.593,0c0-2.757-1.966-5.276-2.865-6.286v-6.6a1.417,1.417,0,0,0-.107-.534,1.4,1.4,0,0,0-.1-.159,1.416,1.416,0,0,0-.189-.282,1.235,1.235,0,0,0-.167-.132,1.345,1.345,0,0,0-.256-.175,1.274,1.274,0,0,0-.221-.07,1.282,1.282,0,0,0-.209-.069L85.759.011a1.6,1.6,0,0,0-.37,0l-32.942,4.3a1.433,1.433,0,0,0,0,2.842Zm67.5,11.469a1.432,1.432,0,1,1-2.864,0,6.651,6.651,0,0,1,1.432-3.493A6.652,6.652,0,0,1,119.947,18.619ZM85.573,2.875l21.869,2.853L85.573,8.582,63.7,5.728Z" transform="translate(-42.607 0)" fill="#fff"/>
        <path id="Caminho_529" data-name="Caminho 529" d="M165.173,199.182a5.718,5.718,0,0,0,5.65-4.955l5.235-3.924a1.432,1.432,0,0,0-1.719-2.292l-3.651,2.738a4.287,4.287,0,0,0-4.083-3.025h-5.729a4.3,4.3,0,0,0-4.3,4.3,4.3,4.3,0,0,0-4.3-4.3h-5.729a4.287,4.287,0,0,0-4.083,3.025l-3.651-2.738A1.432,1.432,0,1,0,137.1,190.3l5.235,3.924a5.717,5.717,0,0,0,5.65,4.955h2.865a5.735,5.735,0,0,0,5.729-5.729,5.735,5.735,0,0,0,5.729,5.729Zm-11.458-5.729a2.868,2.868,0,0,1-2.865,2.865h-2.865a2.867,2.867,0,0,1-2.865-2.865v-1.432a1.434,1.434,0,0,1,1.432-1.432h5.729a1.434,1.434,0,0,1,1.432,1.432v1.432Zm5.729,0v-1.432a1.434,1.434,0,0,1,1.432-1.432h5.729a1.434,1.434,0,0,1,1.432,1.432v1.432a2.867,2.867,0,0,1-2.865,2.865h-2.865A2.867,2.867,0,0,1,159.445,193.453Z" transform="translate(-113.613 -156.215)" fill="#fff"/>
        <path id="Caminho_530" data-name="Caminho 530" d="M165.339,413.541a1.511,1.511,0,0,0-.117-.288c-.027-.05-.033-.107-.064-.156-.016-.021-.039-.033-.054-.054a1.4,1.4,0,0,0-.212-.209,1.206,1.206,0,0,0-.218-.171.813.813,0,0,0-.066-.053l-5.729-2.863a1.43,1.43,0,0,0-1.435.089l-8.595,5.729a1.432,1.432,0,0,0-.637,1.192v5.079a9.423,9.423,0,0,1-5.729,2.082,9.534,9.534,0,0,1-5.729-2.087v-5.075a1.432,1.432,0,0,0-.637-1.192l-8.593-5.729a1.43,1.43,0,0,0-1.435-.089l-5.729,2.863c-.026.013-.04.036-.063.05a1.267,1.267,0,0,0-.231.18,1.37,1.37,0,0,0-.2.2c-.017.023-.043.036-.059.059a1.362,1.362,0,0,0-.067.165,1.473,1.473,0,0,0-.113.275,2.023,2.023,0,0,0-.033.537,1.327,1.327,0,0,0,.077.286,1.368,1.368,0,0,0,.046.172c.013.026.037.041.052.066a1.334,1.334,0,0,0,.178.226,1.551,1.551,0,0,0,.2.2c.023.017.036.043.059.059l8.593,5.729a1.432,1.432,0,1,0,1.59-2.383l-6.541-4.36,2.779-1.389,7.264,4.842v4.963a1.429,1.429,0,0,0,.42,1.013,11.814,11.814,0,0,0,16.348,0,1.434,1.434,0,0,0,.42-1.013v-4.963l7.266-4.842,2.777,1.388-6.541,4.361a1.432,1.432,0,0,0,1.59,2.383l8.593-5.729c.023-.016.034-.04.056-.056a1.46,1.46,0,0,0,.21-.21,1.513,1.513,0,0,0,.168-.216c.014-.026.04-.041.053-.069a1.2,1.2,0,0,0,.05-.182,1.377,1.377,0,0,0,.073-.271,1.359,1.359,0,0,0,0-.285A1.3,1.3,0,0,0,165.339,413.541Z" transform="translate(-99.515 -340.849)" fill="#fff"/>
        <path id="Caminho_531" data-name="Caminho 531" d="M128.521,195.663a1.435,1.435,0,0,0,1.33.9,1.434,1.434,0,0,0,1.331-1.964,43.207,43.207,0,0,1-2.763-13.791V169.35c0-12.2-6.255-15.47-6.521-15.6a1.432,1.432,0,0,0-2.072,1.28v5.729c0,5.417-4.145,16.544-5.579,19.411-1.285,2.571-8.082,10.666-14.473,10.666S86.587,182.738,85.3,180.167c-1.432-2.867-5.577-13.994-5.577-19.411v-5.729a1.432,1.432,0,0,0-2.072-1.28c-.266.133-6.521,3.4-6.521,15.6v11.458A43.206,43.206,0,0,1,68.367,194.6a1.433,1.433,0,0,0,2.661,1.064,45.467,45.467,0,0,0,2.966-14.855V169.349c0-5.808,1.514-9.182,2.865-11.038v2.445c0,6.147,4.51,17.953,5.879,20.692,1.743,3.486,9.371,12.25,17.036,12.25s15.293-8.764,17.035-12.25c1.371-2.738,5.881-14.544,5.881-20.692v-2.442c1.353,1.858,2.865,5.231,2.865,11.035v11.458A45.46,45.46,0,0,0,128.521,195.663Z" transform="translate(-56.808 -127.815)" fill="#fff"/>
        <path id="Caminho_532" data-name="Caminho 532" d="M230.893,307.6a5.812,5.812,0,0,1-6.6,0,1.432,1.432,0,0,0-2.011,2.039,8.536,8.536,0,0,0,10.619,0,1.422,1.422,0,0,0,.009-2A1.442,1.442,0,0,0,230.893,307.6Z" transform="translate(-184.625 -255.633)" fill="#fff"/>
        <path id="Caminho_533" data-name="Caminho 533" d="M426.71,439.095c-.126-.381-3.251-9.374-15.334-12.395a1.432,1.432,0,1,0-.693,2.779c10.494,2.624,13.2,10.206,13.311,10.521a1.431,1.431,0,1,0,2.715-.905Z" transform="translate(-340.85 -355.046)" fill="#fff"/>
        <path id="Caminho_534" data-name="Caminho 534" d="M165.3,71.188V61.162a1.432,1.432,0,1,0-2.864,0v9.1a54.921,54.921,0,0,1-40.1,0v-9.1a1.432,1.432,0,1,0-2.864,0V71.188a1.434,1.434,0,0,0,.792,1.282c.364.18,9.046,4.447,22.124,4.447s21.76-4.267,22.124-4.447A1.434,1.434,0,0,0,165.3,71.188Z" transform="translate(-99.414 -49.705)" fill="#fff"/>
        <path id="Caminho_535" data-name="Caminho 535" d="M15.408,426.7C3.326,429.721.2,438.714.074,439.095A1.431,1.431,0,1,0,2.79,440c.027-.079,2.738-7.879,13.311-10.521a1.432,1.432,0,1,0-.693-2.778Z" transform="translate(0 -355.046)" fill="#fff"/>
      </g>
    </g>
  </g>
</svg>
