<svg xmlns="http://www.w3.org/2000/svg" width="79.853" height="85.556" viewBox="0 0 79.853 85.556">
  <g id="eventos-icon" transform="translate(-17.067)">
    <g id="Grupo_145" data-name="Grupo 145" transform="translate(17.067 0)">
      <g id="Grupo_144" data-name="Grupo 144">
        <path id="Caminho_536" data-name="Caminho 536" d="M60.7,28.46a1.424,1.424,0,0,0,1.767-.971A34.274,34.274,0,0,1,102.5,3.6a7.447,7.447,0,0,0,1.4,4.363c.158.251.374.593.4.64,0,5.113-1.045,5.946-1.034,5.949a10.151,10.151,0,0,0-7.53,4.727,4.556,4.556,0,0,0,.2,4.867,34.465,34.465,0,0,1,1.852,3.287c1.212,2.347,2.557,4.951,4.668,4.951a3.236,3.236,0,0,0,1.45-.378c1.663-.831,2.855-3.2,4.007-5.48a18.165,18.165,0,0,1,1.7-2.953c1.447.2,2.155,1.506,3.111,3.579.7,1.526,1.433,3.1,2.865,3.817,2.41,1.2,10.334-.057,14.713-1.916a1.426,1.426,0,0,0,.818-1.684,37.29,37.29,0,0,0-21.748-24.62,1.425,1.425,0,1,0-1.081,2.638,34.451,34.451,0,0,1,19.719,21.5c-4.438,1.564-10.133,2.035-11.147,1.534-.536-.268-1.075-1.433-1.55-2.461-.994-2.153-2.356-5.1-5.832-5.256-1.8-.108-2.809,1.959-4.111,4.542-.764,1.514-1.918,3.8-2.838,4.255-.529-.124-1.58-2.159-2.207-3.374a36.9,36.9,0,0,0-2.013-3.559,1.712,1.712,0,0,1-.057-1.939,7.61,7.61,0,0,1,5.016-3.221c2.578,0,3.886-2.96,3.886-8.8a4.092,4.092,0,0,0-.837-2.16,4.346,4.346,0,0,1-.858-3.639,1.426,1.426,0,0,0-1.044-1.687,37.128,37.128,0,0,0-44.69,25.571A1.425,1.425,0,0,0,60.7,28.46Z" transform="translate(-52.552 0)" fill="#fff"/>
        <path id="Caminho_537" data-name="Caminho 537" d="M314.755,222.309c-.412.117-.975.28-1.125.291-1.971,0-3.22,1.526-4.131,2.639-.348.425-.977,1.188-1.377,1.2a4.467,4.467,0,0,0-2.013-.485,3.436,3.436,0,0,0-3.462,2.38,2.764,2.764,0,0,0,1.741,3.114c2.316,1.158,4.71,2.354,5.775,3.419a4.946,4.946,0,0,0,3.479,1.154,6.4,6.4,0,0,0,6.257-4.168,8,8,0,0,1,2.31-3.034c1.087-1.042,2.115-2.025,2.129-3.435a3.281,3.281,0,0,0-1.1-2.366,5.512,5.512,0,0,0-4.058-1.51A16.455,16.455,0,0,0,314.755,222.309Zm6.73,3.036a6.122,6.122,0,0,1-1.249,1.413,10.476,10.476,0,0,0-3.043,4.194c-.7,2.11-3.083,2.217-3.552,2.217a2.712,2.712,0,0,1-1.462-.316c-1.395-1.395-3.883-2.639-6.518-3.955l-.016-.007a1.591,1.591,0,0,1,1.2.1,3.121,3.121,0,0,0,1.4.348c1.578,0,2.575-1.218,3.454-2.291.643-.783,1.306-1.594,1.925-1.594a7.6,7.6,0,0,0,1.908-.4,13.994,13.994,0,0,1,3.646-.692,2.75,2.75,0,0,1,2.04.674A2.432,2.432,0,0,1,321.486,225.345Z" transform="translate(-254.872 -184.494)" fill="#fff"/>
        <path id="Caminho_538" data-name="Caminho 538" d="M124.995,166.747a1.426,1.426,0,1,0-2.825.391,34.729,34.729,0,0,1,.327,4.74A34.261,34.261,0,0,1,88.685,206.1c-5.071-3.238-9.823-7.205-7.706-12.145,3.8-8.874.264-12.18-1.248-13.595l-.284-.27a6.744,6.744,0,0,0-1.349-.982c-1.044-.626-1.325-.794-.764-2.475a5.354,5.354,0,0,1,1.433-2.24c1.319-1.395,2.327-2.782,2.327-6.815a5.374,5.374,0,0,0-3.267-5.136,7.112,7.112,0,0,0-7.161.836,3.225,3.225,0,0,0-.957,3.522c1.017,3.044-1.306,7.445-5.647,10.7-1.149.861-1.492.466-1.7.231-1.273-1.467-1.175-5.641-.13-6.685a2.112,2.112,0,0,0,.556-2.391c-1.155-2.619-8.523-2.417-9.984-2.348a1.428,1.428,0,0,0-1.35,1.251,33.708,33.708,0,0,0-.258,4.323A36.988,36.988,0,0,0,79.352,207.87a1.425,1.425,0,0,0,.683-2.768,34.144,34.144,0,0,1-25.983-33.225c0-.99.034-1.864.11-2.755a21.262,21.262,0,0,1,5.507.6c-1.636,2.554-1.456,7.575.543,9.879,1.433,1.651,3.512,1.72,5.563.181,5.478-4.108,8.085-9.56,6.641-13.883-.046-.141-.091-.274.171-.512a4.323,4.323,0,0,1,4.088-.337,2.51,2.51,0,0,1,1.569,2.528c0,3.218-.649,3.906-1.547,4.855a8.124,8.124,0,0,0-2.068,3.3c-1.282,3.852.774,5.086,2,5.824a4.409,4.409,0,0,1,.8.552c.1.1.222.215.352.337,1.255,1.172,3.588,3.355.575,10.387-3.417,7.972,5.393,13.531,9.155,15.9a1.438,1.438,0,0,0,.761.22,37.117,37.117,0,0,0,37.074-37.074A37.528,37.528,0,0,0,124.995,166.747Z" transform="translate(-45.496 -134.803)" fill="#fff"/>
        <path id="Caminho_539" data-name="Caminho 539" d="M83.674,246.8A39.93,39.93,0,0,1,19.919,214.76a1.426,1.426,0,1,0-2.852,0A42.822,42.822,0,0,0,58.419,257.5v4.313a1.426,1.426,0,1,0,2.852,0v-4.335a42.356,42.356,0,0,0,24.107-8.395,1.426,1.426,0,0,0-1.7-2.287Z" transform="translate(-17.067 -177.685)" fill="#fff"/>
        <path id="Caminho_540" data-name="Caminho 540" d="M254.8,345.745c-1.78,0-3.867,2.048-4.629,3.886a3.232,3.232,0,0,0,.486,3.679,5.155,5.155,0,0,0,6.934,0,3.65,3.65,0,0,0,.65-3.917,8.13,8.13,0,0,0-1.881-3.017A2.193,2.193,0,0,0,254.8,345.745Zm.776,5.547a2.5,2.5,0,0,1-2.895.016,1.732,1.732,0,0,1,.359-1.042,4.74,4.74,0,0,1,1.563-1.588,5.24,5.24,0,0,1,.934,1.617C255.694,350.766,255.708,351.159,255.574,351.292Z" transform="translate(-210.93 -287.97)" fill="#fff"/>
      </g>
    </g>
  </g>
</svg>
