<svg xmlns="http://www.w3.org/2000/svg" width="192" height="139" viewBox="0 0 192 139">
  <g id="Grupo_348" data-name="Grupo 348" transform="translate(-138 -61)">
    <path id="Retângulo_457" data-name="Retângulo 457" d="M0,0H192a0,0,0,0,1,0,0V131a8,8,0,0,1-8,8H8a8,8,0,0,1-8-8V0A0,0,0,0,1,0,0Z" transform="translate(138 61)" fill="#fff"/>
    <g id="Fundep" transform="translate(175.948 94.8)">
      <path id="Caminho_30" data-name="Caminho 30" d="M30.193,20.483,18.314,13.53a.948.948,0,0,1-.365-1.368c0-.089,4.115-2.565,4.115-2.565S10.945,1.146,8,12.643c-2.554,9.669-5.131,10.4-5.131,10.4h26.51a1.419,1.419,0,0,0,.817-2.557Z" transform="translate(14.291 18.907)" fill="#103978"/>
      <path id="Caminho_31" data-name="Caminho 31" d="M11.834,19.14C14.87,7.3,26.322,16.006,26.322,16.006a1.728,1.728,0,0,0,.657-2.353L24.9,9.978,22.833,6.41a1.721,1.721,0,0,0-2.353-.382S8.824,11.035,4.84,16.758c-5.771,9.473,0,12.9,1.7,13.1C6.551,29.847,9.214,29.093,11.834,19.14Z" transform="translate(10.135 12.036)" fill="#103978"/>
      <g id="Grupo_16" data-name="Grupo 16" transform="translate(1.052 47.806)">
        <path id="Caminho_32" data-name="Caminho 32" d="M24.061,23.96H19.418L8.981,11.006V23.96H5.32V9.115h6.3l8.86,10.947V9.115h3.579Z" transform="translate(32.572 -9.115)" fill="#103978" fill-rule="evenodd"/>
        <path id="Caminho_33" data-name="Caminho 33" d="M1.052,9.131h15.12v2.743H4.462v3.374H15.551v2.717H4.462v5.948H1.056Z" transform="translate(-1.052 -8.989)" fill="#103978"/>
        <path id="Caminho_34" data-name="Caminho 34" d="M6.779,9.122v8.514c0,2.554,2.468,3.122,4.909,3.122,2.5,0,4.966-.515,4.966-3.122V9.122h3.667v8.292c0,4.572-3.285,6.428-8.8,6.428-5.318,0-8.453-1.74-8.453-6.463V9.122Z" transform="translate(14.884 -9.06)" fill="#103978"/>
        <path id="Caminho_35" data-name="Caminho 35" d="M24.462,17.654h-11.1V21.17H25.5v2.743H10.1V9.122H25v2.743H13.364v3.08h11.1Z" transform="translate(70.214 -9.06)" fill="#103978"/>
        <path id="Caminho_36" data-name="Caminho 36" d="M24.483,10.394A7.1,7.1,0,0,0,19.9,9.134H7.738v3.107H18.806a4.759,4.759,0,0,1,2.859.657,2.927,2.927,0,0,1,.851,2.27V18.09a3.029,3.029,0,0,1-.736,2.148,3.276,3.276,0,0,1-2.336.675H7.747v3H21.084a4.953,4.953,0,0,0,3.658-1.164,4.59,4.59,0,0,0,1.189-3.516V14.087a4.4,4.4,0,0,0-1.449-3.693Z" transform="translate(51.621 -9.019)" fill="#103978"/>
        <path id="Caminho_37" data-name="Caminho 37" d="M27.939,11.538a4.065,4.065,0,0,0-1.554-1.731,5.779,5.779,0,0,0-1.464-.488,12.44,12.44,0,0,0-2.189-.187H12.126v3.078h11.16a2,2,0,0,1,1.571.507,2.6,2.6,0,0,1,.48,1.775,2.954,2.954,0,0,1-.48,2.042,2.074,2.074,0,0,1-1.571.63H12.135v6.653h3.249V20.155H24.2a3.593,3.593,0,0,0,3.187-1.26,6.9,6.9,0,0,0,.924-4.163A9.889,9.889,0,0,0,27.939,11.538Z" transform="translate(86.19 -8.989)" fill="#103978"/>
      </g>
      <path id="Caminho_38" data-name="Caminho 38" d="M17.045,6.684a1.677,1.677,0,0,0,.648,2.282s4.115,2.468,4.115,2.565a.948.948,0,0,1-.365,1.368L9.556,19.852a1.419,1.419,0,0,0,.817,2.554H36.879c.054-.054,7.191-9.8-19.834-15.723" transform="translate(62.552 19.539)" fill="#103978"/>
      <path id="Caminho_39" data-name="Caminho 39" d="M31.813,16.667C27.879,10.991,16.329,6.039,16.329,6.039a1.83,1.83,0,0,0-.968-.284,1.461,1.461,0,0,0-1.349.665l-2.05,3.533L9.91,13.6c27.557,6.038,20.269,15.99,20.224,16.034C31.821,29.433,37.521,26.033,31.813,16.667Z" transform="translate(69.785 12.211)" fill="#103978"/>
      <path id="Caminho_40" data-name="Caminho 40" d="M35.424,8.113a2.317,2.317,0,0,0,.257-1.429c-.568-1.368-4.3-2.824-21.077.16C2.5,9.721,6.962,15.6,6.962,15.6s.089-.044.027,0c.044-.018-.027,0,0,0L8.818,14.42s2.1-1.189,2.192-1.189c.6-.257,1.189-.231,1.27.5l.018,9.74.089,4.474a1.769,1.769,0,0,0,.453,1.189,2.155,2.155,0,0,0,1,.551h8.328a1.5,1.5,0,0,0,1-.453,1.615,1.615,0,0,0,.551-1.1V23.473l.018-9.74s-.1-1.022,1.1-.532c.1,0,2.27,1.216,2.27,1.216L29.13,15.51a1.615,1.615,0,0,0,2.282-.551l2.016-3.374,2-3.471" transform="translate(40.239 7.048)" fill="#103978"/>
      <path id="Caminho_41" data-name="Caminho 41" d="M20.089,13.555c17.311-3.08,21.156-1.581,21.734-.169a2.151,2.151,0,0,0-.949-.976C31.541,7.038,27.581,4.2,23.631,4.2c-3.862,0-7.821,2.838-17.152,8.2-1.135.746-1.3,1.2-.746,2.255L7.8,18.247l2.077,3.579a3.13,3.13,0,0,0,.8.851,1.263,1.263,0,0,0,.993.169,1.779,1.779,0,0,0,.426-.186.651.651,0,0,0,.106-.079S7.605,16.511,20.089,13.555Z" transform="translate(34.464)" fill="#103978"/>
    </g>
  </g>
</svg>
