<svg xmlns="http://www.w3.org/2000/svg" width="609" height="509.789" viewBox="0 0 609 509.789">
  <g id="Grupo_348" data-name="Grupo 348" transform="translate(-363 -3586.561)">
    <path id="Caminho_853" data-name="Caminho 853" d="M740.407,1606.25l156.533,55.536s222.348,42.205,241.9-55.536,106.316,0,106.316,0,74.128-230.51-6.335-278.811c-71.929-43.169-45.588-171.111-146.787-156.327s-107.385,58.054-209.172,49.023c-151.318-13.426-244.319,105.475-155.964,269.744C749.214,1531.377,750.971,1573.459,740.407,1606.25Z" transform="translate(-304.298 2425.5)" fill="#707070" opacity="0.1"/>
    <rect id="Retângulo_440" data-name="Retângulo 440" width="63.317" height="85.663" transform="translate(754.602 3586.561)" fill="#fff" opacity="0.69"/>
    <rect id="Retângulo_441" data-name="Retângulo 441" width="63.317" height="85.663" transform="translate(824.521 3586.561)" fill="#fff" opacity="0.76"/>
    <rect id="Retângulo_442" data-name="Retângulo 442" width="63.317" height="85.663" transform="translate(754.602 3679.979)" fill="#fff" opacity="0.69"/>
    <rect id="Retângulo_443" data-name="Retângulo 443" width="63.317" height="85.663" transform="translate(824.521 3679.979)" fill="#fff" opacity="0.69"/>
    <path id="Caminho_933" data-name="Caminho 933" d="M12,0h94.45a12,12,0,0,1,12,12V27.03a12,12,0,0,1-12,12H12a12,12,0,0,1-12-12V12A12,12,0,0,1,12,0Z" transform="translate(528.263 3724.673)" fill="#3fc5f0"/>
    <rect id="Retângulo_445" data-name="Retângulo 445" width="96.33" height="30.901" rx="12" transform="translate(570.176 3672.223)" fill="#c1dee8" opacity="0.47"/>
    <path id="Caminho_854" data-name="Caminho 854" d="M2597.254,2148.832s-3.682-11.3-11.968,1.759,8.036,20,8.036,20Z" transform="translate(-1889.412 1608.48)" fill="#091644"/>
    <path id="Caminho_855" data-name="Caminho 855" d="M919.352,2951.35c-.161.5-17.072,27.452-17.072,27.452s23.287,3.354,23.638,0,10.508-18.745,10.508-18.745Z" transform="translate(-480.148 931.746)" fill="#fac2ae"/>
    <path id="Caminho_856" data-name="Caminho 856" d="M1000.124,2975.892l-2.976,2.254-2.744,4.7L980.74,2968.6l3.243-5.24Z" transform="translate(-545.938 921.675)" fill="#f1a080"/>
    <path id="Caminho_857" data-name="Caminho 857" d="M1315.089,2412.37c-.447,0-19.639,4.8-19.639,4.8l12.051,17.513s7.656-8.008,15.995-6.144S1315.089,2412.37,1315.089,2412.37Z" transform="translate(-809.828 1383.69)" fill="#fac2ae"/>
    <path id="Caminho_858" data-name="Caminho 858" d="M1384.76,2413.627l2.479,16.725s8.539-3.785,10.884-2.889-8.145-15.063-8.145-15.063Z" transform="translate(-884.716 1383.665)" fill="#f1a080"/>
    <path id="Caminho_859" data-name="Caminho 859" d="M1675.368,2854.62H1846.91a1.938,1.938,0,0,1,1.938,1.938v161.435h-173.48a1.938,1.938,0,0,1-1.938-1.938v-159.5A1.938,1.938,0,0,1,1675.368,2854.62Z" transform="translate(-1126.771 1012.855)" fill="#126985"/>
    <path id="Caminho_860" data-name="Caminho 860" d="M1673.43,3048.23v108.175s3.7,15.159,21.27-2.8,154.147,11.142,154.147,11.142V3047.4Z" transform="translate(-1126.771 851.206)" fill="#3587a1"/>
    <path id="Caminho_861" data-name="Caminho 861" d="M1558.6,2360.734s-27.3-21.256-25.459-81.177c0,0-40.144,8.436-53.895,6.845l-5.859-20.57s55.227-23.935,70.8-24.939,16.235,6.7,20.587,27.952,20.252,71.972,20.252,71.972Z" transform="translate(-959.034 1527.548)" fill="#5d98b2"/>
    <path id="Caminho_862" data-name="Caminho 862" d="M1480.427,2376.5s-.588,22.6,17,22.814c0,0-18.462,1.978-22.7.93s.785-21.551.785-21.551Z" transform="translate(-958.737 1413.768)" fill="#45859b"/>
    <path id="Caminho_863" data-name="Caminho 863" d="M1465.17,2960.368l-33.131.041a4.363,4.363,0,0,1-4.521-4.162l-5.329-165.887a4.36,4.36,0,0,1,4.239-4.444l6.876-.221c17.038-.547,31.416,12.7,31.956,29.446l4.5,139.748C1469.829,2957.255,1467.576,2960.292,1465.17,2960.368Z" transform="translate(-916.099 1070.664)" fill="#3fc5f0"/>
    <path id="Caminho_865" data-name="Caminho 865" d="M2717.544,2985.657l35.518-.431c2.408.1,2.445-1.058,2.445-1.058l6.692-163.505a4.391,4.391,0,0,0-4.2-4.554l-13.328-.546a24.6,24.6,0,0,0-25.514,23.51l-5.868,143.367C2713.193,2984.85,2715.137,2985.558,2717.544,2985.657Z" transform="translate(-1998.71 1045.623)" fill="#3fc5f0"/>
    <path id="Caminho_866" data-name="Caminho 866" d="M1421.83,2803.91s14.564,157.025,20.26,171.436l-10.919.125s-4.672,1.425-4.11-9Z" transform="translate(-915.8 1055.377)" fill="#05abe1"/>
    <path id="Caminho_867" data-name="Caminho 867" d="M2854.592,3063.51s-20.606,118.7-29.262,129.626l18.439.015s5.663-.485,5.881-4.066Z" transform="translate(-2092.66 837.698)" fill="#05abe1"/>
    <path id="Caminho_868" data-name="Caminho 868" d="M2220.458,2399.949s6.989,25.86,12.344,51.8l16.571-15.231,6.7,26.612s-34.48,31.216-41.259,8.37-1-36.656-1.255-64.525c0,0-1.172-14.311-4.36-17.992s-2.623-11.381-2.511-11.717-1.561-14.84,1.786-15.4c0,0,1.561-2.566,3.459,11.829,0,0,5.132,10.6,9.484,7.922s4.575-6.806,9.043-5.021c0,0,.893,1.562-1.453,3.23s-3.682,7.252-3.682,7.252,1.08,2.343-4.387,6.249C2220.939,2393.338,2218.674,2394.956,2220.458,2399.949Z" transform="translate(-1573.645 1426.185)" fill="#f4ae98"/>
    <path id="Caminho_869" data-name="Caminho 869" d="M2216.644,2327.357l9.289-3.1v38.163l-9.373-2.622Z" transform="translate(-1582.195 1457.572)" fill="#232f63"/>
    <path id="Caminho_870" data-name="Caminho 870" d="M2217.791,2335.759l-5.9,21.02.42,7.94,8.87-27.244v-2.845Z" transform="translate(-1578.279 1448.877)" fill="#303f72"/>
    <path id="Caminho_871" data-name="Caminho 871" d="M2197.9,2341.88l3.1.252-.084,32.443-3.013-.447Z" transform="translate(-1566.548 1442.798)" fill="#455993"/>
    <path id="Caminho_872" data-name="Caminho 872" d="M2210.286,2322.524l-3.974-.334-8.412,3.179,3.1.252Z" transform="translate(-1566.548 1459.308)" fill="#4f65a3"/>
    <path id="Caminho_873" data-name="Caminho 873" d="M1097.235,2552.312s13.508.9,23.662,5.167c2.345.986,7.472,3.276,9.069,5.082,7.281,8.236,40.885,78.278,62.409,78.619,22.155.349,12.286-60.094,12.286-60.094s-83.688-79.669-108.125-69.629-61.6,62.264-61.6,62.264l17.073,16.4s18.264-15.9,30.714-28.875l-.273-8.466S1096.117,2552.294,1097.235,2552.312Z" transform="translate(-591.385 1301.338)" fill="#7badc9"/>
    <path id="Caminho_874" data-name="Caminho 874" d="M1731.87,2915.68s-22.734,18.408-23.849,26.557c-1.566,11.431-34.591-33.427-34.591-33.427s35.986,65.11,48.372,62.934S1731.87,2915.68,1731.87,2915.68Z" transform="translate(-1126.771 967.416)" fill="#45859b"/>
    <path id="Caminho_875" data-name="Caminho 875" d="M1201,2539.375s16.263-10.849,24.3-14.084,24.114-9.77,42.965-5.329c0,0-19.086-11.371-25.78-10.5s-13.637-1.739-15.076,1.292S1201,2539.375,1201,2539.375Z" transform="translate(-730.63 1302.459)" fill="#45859b"/>
    <path id="Caminho_876" data-name="Caminho 876" d="M1404.992,2374.939c-.084.335,3.348,24.689,5.439,26.53s16.18-3.519,16.18-3.519-7.557-19.844-5.55-24.566S1404.992,2374.939,1404.992,2374.939Z" transform="translate(-901.68 1417.856)" fill="#9dcce0"/>
    <path id="Caminho_877" data-name="Caminho 877" d="M599.695,3079.08a20.682,20.682,0,0,0,19.814,3.159s8.018-1.2-5.192,36.011c0,0-60.349-11.42-76.638-17.5,0,0-2.734-16.783,19.066-15.678S599.695,3079.08,599.695,3079.08Z" transform="translate(-174.331 824.642)" fill="#232f63"/>
    <path id="Caminho_878" data-name="Caminho 878" d="M541.523,3152.49s77.227,14.932,79.961,8.823l-4.521,13.151-77.742-17.012S540.425,3153.758,541.523,3152.49Z" transform="translate(-175.715 763.086)" fill="#111d49"/>
    <path id="Caminho_879" data-name="Caminho 879" d="M537.691,3177s-.543-4.371.807-7l78.572,16.371-3.222,9.061S541.526,3179.557,537.691,3177Z" transform="translate(-174.342 748.404)" fill="#fff"/>
    <path id="Caminho_880" data-name="Caminho 880" d="M612.758,3194.3l-.205-.045c-2.955-.646-72.415-15.914-76.244-18.469l-.09-.059-.013-.11c-.023-.181-.536-4.475.836-7.135l.082-.162.178.038,78.84,16.426Zm-76.092-18.854c4.565,2.6,71.536,17.363,75.784,18.3l3.068-8.605-78.131-16.277C536.293,3171.175,536.6,3174.768,536.666,3175.446Z" transform="translate(-173.093 749.813)" fill="#231f20"/>
    <path id="Caminho_881" data-name="Caminho 881" d="M1007.67,2252.751a20.661,20.661,0,0,0,11.678,16.31s6.488,4.859-29.268,21.621c0,0-34.294-50.954-41.42-66.81,0,0,10.012-13.742,24.553,2.542S1007.67,2252.751,1007.67,2252.751Z" transform="translate(-519.038 1546.293)" fill="#232f63"/>
    <path id="Caminho_882" data-name="Caminho 882" d="M975.908,2220.09s43.658,65.429,49.925,63.081L1013.3,2289.2l-42.539-67.257S974.235,2220.2,975.908,2220.09Z" transform="translate(-537.569 1544.921)" fill="#111d49"/>
    <path id="Caminho_883" data-name="Caminho 883" d="M948.66,2229.453s2.727-3.459,5.548-4.343l43.581,67.4-8.7,4.082S949.535,2233.984,948.66,2229.453Z" transform="translate(-519.038 1540.711)" fill="#fff"/>
    <path id="Caminho_884" data-name="Caminho 884" d="M987.665,2295.461l-.113-.179c-1.615-2.556-39.577-62.7-40.451-67.214l-.021-.108.068-.085c.113-.144,2.807-3.527,5.665-4.421l.173-.053,43.828,67.779Zm-40.072-67.378c1.356,5.076,37.929,63.088,40.249,66.768l8.273-3.876-43.332-67.015C950.371,2224.813,948.036,2227.555,947.594,2228.083Z" transform="translate(-517.713 1542.145)" fill="#231f20"/>
    <path id="Caminho_885" data-name="Caminho 885" d="M2563.28,2196.41s-23.935-4.683-28.621,7.7-1.763,13.145-10.713,16.235c0,0-2.929.418.838,5.021s3.766,7.115,1.254,11.131.334,9.876,12.3,10.545,10.043,4.436,10.043,4.436-.334,10.293-9.791,18.747,21.676,1.422,21.676,1.422,1.087-15.567,12.72-20.587,13.808-28.036,13.808-28.036l-17.156-21.842Z" transform="translate(-1839.034 1565.505)" fill="#fac2ae"/>
    <path id="Caminho_886" data-name="Caminho 886" d="M2656.845,2556.723s-1.524,12.381-7.315,13.348-13.531,1.657-13.531,1.657,15.825,4.052,19.378,1.552c0,0,.573-.518,1.662-9.744S2656.845,2556.723,2656.845,2556.723Z" transform="translate(-1933.904 1262.887)" fill="#f1a080"/>
    <path id="Caminho_887" data-name="Caminho 887" d="M2771.719,2467.68s-13.48,4.234-13.815,10.372-1.674,19.689-1.674,19.689,4.113-14.049,7.085-16.51S2771.719,2467.68,2771.719,2467.68Z" transform="translate(-2034.719 1337.312)" fill="#f1a080"/>
    <path id="Caminho_888" data-name="Caminho 888" d="M2678.636,2130.646s-.557-20.993,14.279-11.59.565,21.9.565,21.9l-4.037-4.8a15.569,15.569,0,0,0-10.161-5.442Z" transform="translate(-1969.653 1631.672)" fill="#080f28"/>
    <path id="Caminho_889" data-name="Caminho 889" d="M2678.65,2203.41s12.639,1.718,15.875,12.318,1.777,13.058,2.674,15.624-12.381-7.812-12.381-15.958A14.559,14.559,0,0,0,2678.65,2203.41Z" transform="translate(-1969.666 1558.907)" fill="#f1a080"/>
    <path id="Caminho_890" data-name="Caminho 890" d="M2787.33,2343.18s2.789,10.173,0,15.581c0,0,3.682-10.1,11.047-6.753S2787.33,2343.18,2787.33,2343.18Z" transform="translate(-2060.796 1441.707)" fill="#080f28"/>
    <path id="Caminho_891" data-name="Caminho 891" d="M2664.577,2109.226s0-10,3.526-8.019c6,3.367,6.136,8.946,6.312,15.825a10.935,10.935,0,0,1-.3,3.089c-1.257,4.6,1.032,10.461,11.576,16.069s12.386,15.147.836,20.831-5.006,15.622-5.006,15.622,5.284-7.923,12.675-7.59,31.083-10.448,28.983-30.985c-.838-8.181-4.037-8.86-4.9-12.505-2.963-12.581-22.057-35.931-47.96-29.318,0,0-11.4,2.623-7.722,16.237Z" transform="translate(-1955.593 1653.091)" fill="#232f63"/>
    <rect id="Retângulo_448" data-name="Retângulo 448" width="175.418" height="35.818" rx="12" transform="translate(546.659 3943.95)" fill="#27afdb"/>
    <rect id="Retângulo_449" data-name="Retângulo 449" width="175.418" height="8.536" transform="translate(546.659 3974.416)" fill="#68a7ff"/>
    <path id="Caminho_892" data-name="Caminho 892" d="M2037.756,2639.88s16.067,7.173,23.6,1.578c0,0,1.841-.825,0,4.113s4.522,11.215,3.18,20-12.47,80.144-92.142,86.5c0,0-38.917,5.051-44.27-6.5,0,0-5.524-13.222,2.511-36.5s23.767-19.415,32.639-40.336c0,0,16.39,20.753,38.5,2.845S2037.756,2639.88,2037.756,2639.88Z" transform="translate(-1338.784 1192.919)" fill="#232f63"/>
    <path id="Caminho_893" data-name="Caminho 893" d="M2197.562,2441.229s6.987,25.86,12.344,51.8l17.127-12.343,7.645,22.552s-35.986,32.388-42.765,9.54-1-36.656-1.255-64.523c0,0-1.171-14.31-4.352-17.992s-2.623-11.383-2.511-11.717-1.562-14.84,1.786-15.4c0,0,1.562-2.566,3.459,11.829,0,0,5.134,10.6,9.486,7.922s4.575-6.806,9.043-5.021c0,0,.893,1.562-1.453,3.23s-3.682,7.254-3.682,7.254,1.08,2.343-4.387,6.248C2198.041,2434.616,2195.776,2436.242,2197.562,2441.229Z" transform="translate(-1554.451 1391.571)" fill="#fac2ae"/>
    <path id="Caminho_894" data-name="Caminho 894" d="M1163.662,2742.266s-20.284-8.262-27.365-.394l-.1-3.254-14.781.485.273,8.467s-21.927,23.678-29.046,27.193-11.239-10.854-11.239-10.854,17.891,7.005,37.2-25.8l.052-.094a16.755,16.755,0,0,1,19.594-7.913A94.289,94.289,0,0,1,1163.662,2742.266Z" transform="translate(-630.343 1117.889)" fill="#45859b"/>
    <path id="Caminho_895" data-name="Caminho 895" d="M981.768,2871.7s17.519,18.522,21.424,19.526-10.711,11.94-10.711,11.94l-20.421-19.3S981.323,2867.464,981.768,2871.7Z" transform="translate(-538.659 999.118)" fill="#94c2d6"/>
    <path id="Caminho_896" data-name="Caminho 896" d="M1772,2458.025s12.04-1.825,17.73-7.055c0,0-4.187,51.13,15.4,64.208l-18.548-15.664s-1.717-15.874-3.034-40.314Z" transform="translate(-1209.424 1351.324)" fill="#45859b"/>
    <path id="Caminho_897" data-name="Caminho 897" d="M2262.65,2986.82c-.292-.134,10.406,11.449,35.4-3.838s33.252-22.651,33.252-22.651-14.113,10.96-23.04,12.969l-3.6-5.881S2277.558,2993.583,2262.65,2986.82Z" transform="translate(-1620.838 924.216)" fill="#0f1a42"/>
    <path id="Caminho_898" data-name="Caminho 898" d="M2332.72,2769.467s6.1,8.81,16.893-7.236a6.9,6.9,0,0,1,3.265-3.993c2.763-1.673,21.09-12.638,21.09-12.638l-23.405,18.16,1.615,4.229-17.127,12.342Z" transform="translate(-1679.598 1104.271)" fill="#0f1a42"/>
    <path id="Caminho_899" data-name="Caminho 899" d="M2308.575,2884.25s7.645,17.187-2.362,26.346c-5.626,5.149-25.493,13.365-25.493,13.365s13.579,3.821,39.1-20.346Z" transform="translate(-1635.995 988.01)" fill="#f1a080"/>
    <path id="Caminho_900" data-name="Caminho 900" d="M2347.16,2932.439s.893,4.295.893,5.3,6.653-10.739,6.653-10.739Z" transform="translate(-1691.706 952.164)" fill="#f1a080"/>
    <path id="Caminho_901" data-name="Caminho 901" d="M2785.318,2412.46s9.735,8.465-3.432,17.726c0,0-5.9,5.1-4.789,8.074l-3.5,3.864s-6.771-10.377,5.006-15.622C2778.593,2426.5,2788.526,2422.853,2785.318,2412.46Z" transform="translate(-2047.653 1383.615)" fill="#0a1a49"/>
    <path id="Caminho_902" data-name="Caminho 902" d="M3015.12,2290.15s5.507,12.192,5.507,16.355C3020.626,2306.505,3023.336,2295.293,3015.12,2290.15Z" transform="translate(-2251.802 1486.174)" fill="#232f63"/>
    <path id="Caminho_903" data-name="Caminho 903" d="M2651.6,2522.62s6.621,1.484,8.882,0c0,0-5.19,11.877-11.627,16.726C2648.844,2539.347,2658.8,2523.9,2651.6,2522.62Z" transform="translate(-1944.678 1291.244)" fill="#f1a080"/>
    <path id="Caminho_932" data-name="Caminho 932" d="M12,0H79.053a12,12,0,0,1,12,12V43.054a12,12,0,0,1-12,12H12a12,12,0,0,1-12-12V12A12,12,0,0,1,12,0Z" transform="translate(654.587 3669.804)" fill="#3fc5f0"/>
    <g id="Grupo_343" data-name="Grupo 343" transform="translate(810.08 3870.258)" opacity="0.56">
      <path id="Caminho_904" data-name="Caminho 904" d="M3461.825,3347.535l-.72-.01c0-.257.231-25.911-7.335-41.662l.646-.323C3462.059,3321.454,3461.831,3347.277,3461.825,3347.535Z" transform="translate(-3440.84 -3255.208)" fill="#d3ddef"/>
      <path id="Caminho_905" data-name="Caminho 905" d="M3503.165,3315.637c0-.312-.281-31.46,8.932-50.647l.646.323c-9.14,19.034-8.864,50.01-8.861,50.321Z" transform="translate(-3482.258 -3221.206)" fill="#d3ddef"/>
      <path id="Caminho_906" data-name="Caminho 906" d="M3456.266,3523.958c0,1.014-4.972,1.838-11.1,1.838s-11.1-.824-11.1-1.838,4.969-1.838,11.1-1.838S3456.266,3522.944,3456.266,3523.958Z" transform="translate(-3424.313 -3436.814)" fill="#a9bcd8"/>
      <path id="Caminho_907" data-name="Caminho 907" d="M3456.266,3848.07c0,1.014-4.972,1.838-11.1,1.838s-11.1-.824-11.1-1.838,4.969-1.839,11.1-1.839S3456.266,3847.054,3456.266,3848.07Z" transform="translate(-3424.313 -3708.587)" fill="#a9bcd8"/>
      <rect id="Retângulo_452" data-name="Retângulo 452" width="22.205" height="52.339" transform="translate(9.747 87.144)" fill="#a9bcd8"/>
      <path id="Caminho_908" data-name="Caminho 908" d="M3384.276,3103.87l3.876-2.653a47.084,47.084,0,0,0-6.206-11h-1.925l.849-1.4a68.4,68.4,0,0,0-7.17-7.695,114.82,114.82,0,0,0,1.915,14.391h3.054l-2.792,1.292c.36,1.707.777,3.469,1.256,5.241l3.619-.685-3.076,2.592c2.307,7.742,5.909,15.328,11.491,18.894,0,0,3.466-7.913-.224-19.4Z" transform="translate(-3373.7 -3067.028)" fill="#d3ddef"/>
      <path id="Caminho_909" data-name="Caminho 909" d="M3540.631,3021.3l-4.683-3.2a57.052,57.052,0,0,1,7.491-13.277h2.322l-1.025-1.689a82.272,82.272,0,0,1,8.652-9.287,138.284,138.284,0,0,1-2.311,17.369h-3.685l3.368,1.554c-.433,2.062-.937,4.187-1.516,6.327l-4.36-.825,3.714,3.128c-2.784,9.342-7.129,18.5-13.868,22.8,0,0-4.184-9.547.273-23.415Z" transform="translate(-3507.234 -2993.85)" fill="#b1c3dd"/>
    </g>
    <path id="Caminho_910" data-name="Caminho 910" d="M1983.26,2865.411s-19.4,10.052-46.8-7.317c0,0-10.685,24.577-5.671,34.778s43.032,9.227,62.957,3.59,57.211-14.25,73.017-80.922c0,0-4.828,19.507-23.218,29.351s-30.2,16.4-30.2,16.4l-18.264,7.328S1984.786,2867.886,1983.26,2865.411Z" transform="translate(-1341.448 1045.625)" fill="#0f1a42"/>
    <path id="Caminho_911" data-name="Caminho 911" d="M2686.454,2662a20.468,20.468,0,0,1-13.9,3.18c-7.729-1.24,15.142,9.775,16.247,12.907,0,0-1.478-5.377-2.729-8.623A9.6,9.6,0,0,1,2686.454,2662Z" transform="translate(-1963.221 1174.371)" fill="#0f1a42"/>
    <path id="Caminho_912" data-name="Caminho 912" d="M2126.9,2192.56l6.421,10.714,2.548-10.714Z" transform="translate(-1507.014 1568.005)" fill="#68a7ff"/>
    <rect id="Retângulo_453" data-name="Retângulo 453" width="101.425" height="3.281" rx="1.641" transform="translate(536.776 3731.78)" fill="#fff"/>
    <rect id="Retângulo_454" data-name="Retângulo 454" width="101.425" height="3.281" rx="1.641" transform="translate(536.776 3738.05)" fill="#fff"/>
    <path id="Caminho_914" data-name="Caminho 914" d="M2156.362,2096.523v-3.315a.485.485,0,0,1,.127-.344c.856-.969,1.707-1.938,2.566-2.906a.96.96,0,0,0,.237-.628c0-.141,0-.281.011-.422a.969.969,0,0,1,1.2-.83.9.9,0,0,1,.568.615,2.773,2.773,0,0,1,.162.88,5.523,5.523,0,0,1-.442,2.658c-.058.129.039.092.09.092h2.5a1.181,1.181,0,0,1,1.1.681,1.224,1.224,0,0,1-.425,1.584c-.09.06-.1.087-.029.174a1.174,1.174,0,0,1-.2,1.654c-.071.058-.089.087-.015.162a1.148,1.148,0,0,1-.083,1.686c-.079.071-.1.1,0,.181a1.108,1.108,0,0,1,.351,1.229,1.13,1.13,0,0,1-1.058.756h-6.03c-.446,0-.628-.184-.628-.633Q2156.36,2098.168,2156.362,2096.523Z" transform="translate(-1531.717 1655.641)" fill="#fff"/>
    <path id="Caminho_915" data-name="Caminho 915" d="M2130.076,2120.027v-3.611a.6.6,0,0,1,.662-.659h2.164a.594.594,0,0,1,.646.646v7.236a.662.662,0,0,1-.667.664c-.725-.021-1.453,0-2.177-.008a.589.589,0,0,1-.646-.638Z" transform="translate(-1509.66 1632.408)" fill="#fff"/>
    <path id="Caminho_918" data-name="Caminho 918" d="M2704.868,1743.623c.352-.467.664-.945,1.038-1.366a6.689,6.689,0,0,1,5.421-2.385,6.312,6.312,0,0,1,6.215,5.629,7.6,7.6,0,0,1-1.413,5.541,18.615,18.615,0,0,1-3.678,3.842,39.622,39.622,0,0,1-7.352,4.654.4.4,0,0,1-.41,0,37.219,37.219,0,0,1-8.591-5.726,13.642,13.642,0,0,1-3.086-3.85,7.037,7.037,0,0,1,.4-7.455,5.827,5.827,0,0,1,4.249-2.556,6.676,6.676,0,0,1,4.32.756,7.582,7.582,0,0,1,2.778,2.734Z" transform="translate(-2021.987 1947.601)" fill="#fff"/>
    <path id="Caminho_922" data-name="Caminho 922" d="M2899.735,1763.13l5.2-6.928a5.107,5.107,0,0,0,.7-1.235,3.266,3.266,0,0,0,.252-1.193v-.021a1.8,1.8,0,0,0-.523-1.382,2.4,2.4,0,0,0-2.961.053,2.457,2.457,0,0,0-.686,1.523v.01h-2.162v-.031a5.557,5.557,0,0,1,.754-2.188,3.825,3.825,0,0,1,1.47-1.384,4.379,4.379,0,0,1,2.08-.484,5.167,5.167,0,0,1,2.275.457,3.213,3.213,0,0,1,1.436,1.326,4.211,4.211,0,0,1,.485,2.1v.01a4.643,4.643,0,0,1-.323,1.65,7.13,7.13,0,0,1-.913,1.66l-4.313,5.862h5.635v1.988h-8.4Z" transform="translate(-2195.912 1939.211)" fill="#fff"/>
    <path id="Caminho_923" data-name="Caminho 923" d="M2971.385,1765.522a3.636,3.636,0,0,1-1.424-1.281,5.105,5.105,0,0,1-.731-2.019v-.01h2.09v.01a1.935,1.935,0,0,0,.656,1.276,2.126,2.126,0,0,0,1.414.455,1.888,1.888,0,0,0,1.552-.67,2.932,2.932,0,0,0,.549-1.891v-1.25a2.9,2.9,0,0,0-.549-1.881,1.882,1.882,0,0,0-1.552-.67,1.969,1.969,0,0,0-1.044.307,2.906,2.906,0,0,0-.881.861h-1.906v-7.85h7.589v1.988h-5.5v3.356a2.968,2.968,0,0,1,.872-.484,2.851,2.851,0,0,1,.983-.174,4.319,4.319,0,0,1,2.208.533,3.392,3.392,0,0,1,1.394,1.557,5.824,5.824,0,0,1,.484,2.471v1.25a5.673,5.673,0,0,1-.484,2.469,3.48,3.48,0,0,1-1.436,1.563,4.493,4.493,0,0,1-2.26.538A4.4,4.4,0,0,1,2971.385,1765.522Z" transform="translate(-2254.339 1938.337)" fill="#fff"/>
    <path id="Caminho_924" data-name="Caminho 924" d="M3041.062,1763.907a4.292,4.292,0,0,1-1.082-3.115v-6.769a4.276,4.276,0,0,1,1.087-3.12,5.081,5.081,0,0,1,6.338-.007,4.278,4.278,0,0,1,1.081,3.126v6.772a4.277,4.277,0,0,1-1.087,3.122,5.055,5.055,0,0,1-6.336-.01Zm4.806-1.453a2.394,2.394,0,0,0,.526-1.665v-6.766a2.4,2.4,0,0,0-.521-1.665,2.609,2.609,0,0,0-3.28,0,2.407,2.407,0,0,0-.521,1.665v6.772a2.385,2.385,0,0,0,.526,1.665,2.59,2.59,0,0,0,3.27,0Z" transform="translate(-2313.664 1939.276)" fill="#fff"/>
    <path id="Caminho_30" data-name="Caminho 30" d="M8.37,9.4,5.977,8A.191.191,0,0,1,5.9,7.723c0-.018.829-.517.829-.517S4.493,5.5,3.9,7.82C3.385,9.767,2.866,9.914,2.866,9.914H8.205A.286.286,0,0,0,8.37,9.4Z" transform="translate(536.633 3743.791)" fill="#fff"/>
    <path id="Caminho_31" data-name="Caminho 31" d="M4.247,8.426c.612-2.385,2.918-.631,2.918-.631A.348.348,0,0,0,7.3,7.321l-.418-.74-.417-.719a.347.347,0,0,0-.474-.077,9.253,9.253,0,0,0-3.15,2.161c-1.162,1.908,0,2.6.343,2.638C3.183,10.582,3.72,10.43,4.247,8.426Z" transform="translate(536.22 3743.11)" fill="#fff"/>
    <path id="Caminho_32" data-name="Caminho 32" d="M9.095,12.1H8.16L6.057,9.5V12.1H5.32V9.115H6.589l1.784,2.2v-2.2h.721Z" transform="translate(538.567 3745.77)" fill="#fffffe" fill-rule="evenodd"/>
    <path id="Caminho_33" data-name="Caminho 33" d="M1.052,9.131H4.1v.552H1.739v.68H3.972v.547H1.739v1.2H1.053Z" transform="translate(535.203 3745.783)" fill="#fffffe"/>
    <path id="Caminho_34" data-name="Caminho 34" d="M3.818,9.122v1.715c0,.514.5.629.989.629s1-.1,1-.629V9.122h.738v1.67c0,.921-.662,1.295-1.772,1.295-1.071,0-1.7-.35-1.7-1.3V9.122Z" transform="translate(536.8 3745.776)" fill="#fffffe"/>
    <path id="Caminho_35" data-name="Caminho 35" d="M12.993,10.84H10.757v.708H13.2V12.1H10.1V9.122h3v.552H10.757v.62h2.235Z" transform="translate(542.331 3745.776)" fill="#fffffe"/>
    <path id="Caminho_36" data-name="Caminho 36" d="M11.111,9.372a1.429,1.429,0,0,0-.923-.254H7.738v.626H9.967a.959.959,0,0,1,.576.132.59.59,0,0,1,.171.457v.588a.61.61,0,0,1-.148.433.66.66,0,0,1-.47.136H7.74v.6h2.686a1,1,0,0,0,.737-.234.925.925,0,0,0,.239-.708V10.116A.886.886,0,0,0,11.111,9.372Z" transform="translate(540.472 3745.79)" fill="#fffffe"/>
    <path id="Caminho_37" data-name="Caminho 37" d="M15.311,9.616A.819.819,0,0,0,15,9.267a1.164,1.164,0,0,0-.295-.1,2.506,2.506,0,0,0-.441-.038H12.126v.62h2.248a.4.4,0,0,1,.316.1.524.524,0,0,1,.1.358.6.6,0,0,1-.1.411.418.418,0,0,1-.316.127H12.128v1.34h.654v-.737h1.776A.724.724,0,0,0,15.2,11.1a1.39,1.39,0,0,0,.186-.838,1.992,1.992,0,0,0-.075-.643Z" transform="translate(543.931 3745.783)" fill="#fffffe"/>
    <path id="Caminho_38" data-name="Caminho 38" d="M10.61,6.683a.338.338,0,0,0,.131.46s.829.5.829.517a.191.191,0,0,1-.073.275L9.1,9.335a.286.286,0,0,0,.165.514h5.338c.011-.011,1.448-1.974-3.995-3.167" transform="translate(541.464 3743.855)" fill="#fff"/>
    <path id="Caminho_39" data-name="Caminho 39" d="M14.321,7.949A9.115,9.115,0,0,0,11.2,5.809a.369.369,0,0,0-.195-.057.294.294,0,0,0-.272.134l-.413.712L9.91,7.33c5.55,1.216,4.082,3.221,4.073,3.229C14.323,10.52,15.471,9.836,14.321,7.949Z" transform="translate(542.184 3743.124)" fill="#fff"/>
    <path id="Caminho_40" data-name="Caminho 40" d="M12.054,5.705a.467.467,0,0,0,.052-.288c-.114-.275-.865-.569-4.245.032-2.437.579-1.539,1.764-1.539,1.764s.018-.009.005,0c.009,0-.005,0,0,0L6.7,6.976s.424-.239.442-.239c.121-.052.239-.047.256.1L7.4,8.8l.018.9a.356.356,0,0,0,.091.239.434.434,0,0,0,.2.111H9.385a.3.3,0,0,0,.2-.091A.325.325,0,0,0,9.7,9.736V8.8l0-1.962s-.02-.206.222-.107c.02,0,.457.245.457.245l.406.22a.325.325,0,0,0,.46-.111l.406-.68.4-.7" transform="translate(539.228 3742.605)" fill="#fff"/>
    <path id="Caminho_41" data-name="Caminho 41" d="M8.38,6.084c3.487-.62,4.261-.318,4.377-.034a.433.433,0,0,0-.191-.2C10.686,4.772,9.889,4.2,9.093,4.2c-.778,0-1.575.572-3.455,1.652-.229.15-.261.241-.15.454l.417.723.418.721a.63.63,0,0,0,.161.171.254.254,0,0,0,.2.034.358.358,0,0,0,.086-.037A.131.131,0,0,0,6.791,7.9S5.865,6.679,8.38,6.084Z" transform="translate(538.651 3741.903)" fill="#fff"/>
  </g>
</svg>
